<?xml version="1.0" standalone="no"?>
<!DOCTYPE svg PUBLIC "-//W3C//DTD SVG 20010904//EN"
 "http://www.w3.org/TR/2001/REC-SVG-20010904/DTD/svg10.dtd">
<svg version="1.0" xmlns="http://www.w3.org/2000/svg"
 width="3240.000000pt" height="4050.000000pt" viewBox="0 0 3240.000000 4050.000000"
 preserveAspectRatio="xMidYMid meet">

<g transform="translate(0.000000,4050.000000) scale(0.100000,-0.100000)"
fill="#000000" stroke="none">
<path d="M19542 39348 c-18 -35 -36 -70 -41 -78 -5 -8 -14 -26 -20 -40 -13
-27 -41 -78 -54 -95 -10 -13 -71 -128 -93 -175 -9 -19 -19 -37 -23 -40 -3 -3
-12 -16 -19 -30 -6 -14 -32 -61 -56 -105 -25 -44 -59 -107 -77 -140 -17 -33
-41 -78 -54 -100 -13 -22 -38 -69 -57 -105 -18 -36 -36 -67 -39 -70 -3 -3 -14
-23 -25 -45 -11 -22 -39 -75 -62 -119 l-42 -79 0 -373 c0 -428 7 -399 -96
-392 -38 2 -55 -1 -59 -10 -7 -19 -6 -767 1 -786 5 -12 21 -16 68 -16 35 0 67
-5 74 -12 9 -9 12 -259 12 -1065 0 -1186 8 -1076 -79 -1055 -87 20 -166 44
-176 53 -6 4 -31 11 -55 15 -25 3 -55 12 -67 20 -12 7 -41 16 -65 20 -24 3
-52 12 -64 19 -12 8 -39 17 -60 21 -21 3 -50 12 -64 19 -14 7 -42 15 -62 19
-20 4 -50 13 -65 21 -15 8 -41 15 -58 15 -16 0 -43 9 -60 20 -16 11 -43 20
-60 20 -16 0 -42 6 -57 14 -15 8 -52 20 -82 26 -31 6 -58 15 -61 20 -3 4 -22
11 -42 14 -21 4 -54 13 -73 20 -19 7 -66 22 -105 34 -38 11 -92 28 -120 37
-27 9 -68 21 -90 26 -22 5 -53 16 -70 23 -16 8 -49 17 -72 21 -24 4 -45 10
-48 15 -3 5 -24 11 -48 15 -23 4 -51 12 -62 18 -11 7 -42 17 -70 23 -46 11
-99 27 -180 55 -43 15 -122 38 -181 53 -28 7 -60 19 -72 25 -12 6 -41 16 -64
21 -24 4 -63 15 -88 24 -113 38 -120 39 -200 16 -41 -12 -100 -28 -130 -37
-30 -8 -59 -19 -65 -23 -5 -5 -28 -11 -50 -15 -22 -4 -62 -15 -90 -25 -87 -31
-119 -41 -170 -55 -27 -8 -81 -23 -120 -33 -38 -11 -81 -24 -95 -29 -14 -6
-59 -21 -100 -33 -41 -13 -100 -31 -130 -40 -30 -10 -89 -28 -130 -40 -41 -11
-88 -26 -105 -31 -16 -6 -54 -17 -83 -24 -29 -8 -59 -18 -66 -24 -6 -5 -32
-13 -56 -17 -25 -4 -49 -10 -55 -14 -5 -4 -35 -15 -65 -23 -135 -38 -167 -48
-197 -62 -17 -8 -40 -15 -51 -15 -11 0 -44 -8 -74 -19 -29 -10 -87 -29 -128
-41 -41 -12 -92 -28 -113 -36 -20 -8 -47 -14 -58 -14 -11 0 -39 -9 -62 -19
-23 -11 -60 -22 -81 -27 -22 -4 -51 -13 -65 -20 -14 -8 -35 -14 -46 -14 -11 0
-32 -6 -47 -14 -14 -8 -46 -17 -70 -21 -24 -4 -52 -13 -63 -20 -11 -7 -40 -17
-65 -23 -25 -5 -58 -15 -75 -21 -71 -25 -133 -43 -177 -52 -26 -5 -60 -16 -75
-24 -15 -8 -37 -15 -48 -15 -11 0 -38 -9 -60 -20 -22 -11 -51 -20 -65 -20 -14
0 -38 -7 -54 -15 -16 -8 -47 -18 -70 -21 -22 -4 -51 -13 -64 -21 -12 -7 -41
-18 -65 -22 -23 -5 -55 -14 -72 -20 -65 -23 -132 -43 -170 -51 -22 -5 -53 -16
-70 -24 -16 -9 -44 -16 -60 -16 -17 0 -40 -7 -52 -15 -12 -9 -41 -19 -65 -24
-24 -5 -56 -14 -73 -20 -67 -23 -132 -43 -175 -52 -25 -5 -57 -16 -72 -24 -14
-8 -34 -15 -45 -15 -10 -1 -36 -8 -58 -16 -49 -18 -122 -41 -196 -59 -31 -8
-69 -22 -85 -30 -16 -8 -39 -15 -52 -15 -28 0 -78 -25 -84 -42 -3 -7 -2 -23 3
-35 l8 -23 4771 0 4770 0 11 27 c13 36 -9 57 -81 76 -30 8 -68 20 -85 26 -16
6 -64 20 -105 32 -97 27 -197 57 -235 71 -16 5 -52 16 -80 23 -27 7 -70 23
-95 36 l-45 24 -3 1264 c-2 1120 0 1267 13 1288 13 20 24 23 73 23 32 0 63 5
70 12 9 9 12 112 12 400 l0 388 -22 4 c-13 3 -47 7 -77 10 -29 3 -56 8 -60 12
-3 3 -8 188 -11 410 -3 253 -9 407 -15 412 -5 4 -22 32 -38 63 -15 32 -34 62
-42 69 -8 7 -15 20 -15 30 0 9 -8 28 -18 41 -10 13 -31 50 -47 82 -17 31 -42
79 -56 105 -14 26 -40 75 -58 109 -18 34 -36 65 -41 68 -6 4 -10 14 -10 24 0
10 -6 23 -13 29 -6 6 -28 41 -47 79 -19 37 -37 70 -41 73 -3 3 -10 16 -14 30
-4 14 -13 32 -20 40 -8 8 -18 26 -24 40 -6 14 -15 32 -20 40 -32 51 -131 232
-131 240 0 10 -40 50 -50 50 -3 0 -21 -28 -38 -62z"/>
<path d="M11514 33263 c-12 -2 -32 -15 -45 -29 l-24 -26 0 -2713 0 -2714 29
-30 30 -31 4725 0 4726 1 30 24 30 25 0 2720 0 2720 -28 27 -27 28 -4713 1
c-2591 1 -4722 -1 -4733 -3z m4841 -826 c92 -14 202 -44 243 -67 9 -6 28 -14
42 -20 28 -11 38 -17 133 -79 113 -74 270 -239 308 -324 5 -12 22 -44 38 -72
17 -27 30 -57 31 -65 0 -8 9 -33 20 -55 11 -22 19 -52 20 -67 0 -15 7 -53 15
-85 13 -49 15 -215 15 -1185 l0 -1128 -26 -10 c-16 -6 -388 -10 -992 -10 -860
0 -970 2 -990 16 l-22 15 0 1097 c1 714 4 1113 11 1142 6 25 16 74 23 110 6
36 18 79 25 95 7 17 21 50 31 75 34 86 56 128 83 158 10 10 17 22 17 26 0 10
112 145 142 171 75 66 140 113 193 140 17 8 37 19 45 25 8 5 26 14 40 20 14 5
32 14 40 19 31 18 158 50 225 57 39 3 77 10 85 15 16 10 54 7 205 -14z m-2709
-1332 c44 -14 88 -30 99 -35 11 -5 31 -14 45 -20 14 -6 37 -18 51 -28 14 -9
43 -29 65 -43 70 -47 194 -192 224 -261 5 -13 14 -30 19 -38 25 -44 46 -103
60 -175 21 -110 24 -1196 3 -1217 -19 -19 -1485 -24 -1522 -5 l-25 13 0 575
c0 415 3 580 11 590 7 8 15 34 18 59 7 46 32 114 69 185 96 185 273 331 477
394 41 13 80 24 85 26 6 2 62 4 126 4 98 1 129 -3 195 -24z m5494 1 c30 -9 69
-23 85 -31 97 -43 130 -60 145 -74 8 -9 34 -28 55 -43 22 -15 51 -40 65 -55
58 -64 108 -129 114 -150 4 -13 11 -23 15 -23 7 0 37 -72 77 -190 18 -51 19
-98 22 -642 2 -407 0 -594 -8 -608 -11 -20 -19 -20 -764 -20 -635 0 -755 2
-765 14 -9 11 -11 168 -8 618 3 596 4 604 26 663 34 91 60 143 110 220 48 74
164 195 187 195 8 0 14 5 14 10 0 13 167 96 212 105 18 4 38 11 43 15 20 16
53 19 185 16 96 -1 151 -7 190 -20z"/>
<path d="M5455 31690 c-598 -4 -785 -8 -802 -17 -12 -7 -30 -13 -40 -13 -10 0
-29 -7 -43 -15 -14 -7 -38 -21 -55 -30 -55 -29 -70 -40 -111 -80 -23 -22 -111
-107 -196 -190 -478 -464 -1055 -1050 -1105 -1123 -18 -26 -42 -77 -53 -113
-20 -65 -20 -91 -20 -1200 1 -1134 1 -1134 21 -1159 l21 -25 3794 -3 3794 -2
10 26 c7 17 9 711 8 1974 -3 1583 -5 1951 -16 1962 -11 11 -423 13 -2220 13
-1214 0 -2558 -2 -2987 -5z"/>
<path d="M21768 31694 c-9 -3 -19 -16 -22 -30 -4 -13 -7 -900 -7 -1970 0
-1462 3 -1950 12 -1960 10 -12 567 -14 3794 -14 l3783 0 31 26 31 26 0 1125
c0 1229 3 1168 -58 1293 -28 59 -164 202 -707 744 -678 676 -665 665 -847 736
l-57 22 -2968 3 c-1633 3 -2975 2 -2985 -1z"/>
<path d="M2720 27060 c-67 -8 -129 -35 -150 -64 -8 -11 -23 -41 -32 -66 -17
-42 -18 -120 -18 -1116 0 -1187 -2 -1140 64 -1202 25 -24 45 -31 111 -41 116
-16 26950 -16 27027 1 61 13 116 58 151 123 l22 40 0 1085 0 1085 -30 55 c-24
44 -40 60 -80 80 l-50 25 -13480 1 c-7414 1 -13505 -2 -13535 -6z"/>
<path d="M2527 23803 c-4 -3 -7 -554 -7 -1224 0 -1094 2 -1219 16 -1233 14
-15 381 -16 3889 -16 3524 0 3878 1 3912 16 116 49 152 74 277 194 209 199
329 310 435 400 29 25 58 50 65 55 6 6 38 32 71 60 33 27 64 55 68 62 4 7 15
13 22 13 8 0 15 4 15 9 0 4 17 20 38 33 20 14 48 35 62 47 35 30 217 169 276
211 138 97 444 303 476 321 14 8 51 30 82 49 31 19 72 44 90 55 90 53 155 91
191 111 168 92 227 124 234 124 4 0 12 5 17 10 6 6 56 33 112 59 56 27 112 55
124 63 13 8 48 24 78 37 30 12 73 31 96 42 22 10 45 19 51 19 6 0 16 7 23 15
7 8 27 17 46 21 18 3 38 12 45 20 6 8 18 14 27 14 8 0 36 10 61 21 113 53 129
59 142 59 8 0 23 6 34 14 11 7 36 19 55 24 74 23 155 54 164 63 6 5 19 9 30 9
11 0 38 8 60 18 53 24 131 51 181 63 21 6 44 14 50 18 5 5 33 13 60 19 28 6
64 18 80 26 17 9 38 16 48 16 11 0 31 7 45 15 15 8 47 20 72 26 37 10 42 13
25 20 -24 9 -11929 12 -11938 2z"/>
<path d="M17941 23801 c-10 -6 -3 -12 25 -21 22 -6 48 -15 59 -20 11 -5 56
-21 100 -34 269 -85 343 -110 370 -121 17 -8 41 -17 55 -20 14 -4 63 -22 110
-40 47 -18 102 -38 122 -45 21 -6 40 -16 43 -21 4 -5 14 -9 23 -9 9 0 60 -18
112 -40 52 -23 109 -47 125 -54 17 -7 50 -22 75 -33 25 -12 68 -31 95 -43 89
-40 468 -229 540 -270 39 -22 85 -47 104 -56 19 -8 40 -22 48 -30 8 -8 18 -14
22 -14 10 0 103 -53 226 -130 31 -19 71 -44 89 -55 200 -122 563 -381 811
-578 55 -44 105 -85 110 -91 6 -7 48 -43 95 -80 47 -38 112 -94 145 -125 33
-31 96 -87 139 -126 43 -38 138 -128 212 -200 138 -135 188 -168 295 -199 51
-15 402 -16 3910 -16 3069 0 3859 3 3872 13 16 11 17 94 15 1237 l-3 1225
-5965 2 c-3360 2 -5971 -1 -5979 -6z"/>
<path d="M15937 21660 c-38 -5 -82 -13 -99 -19 -17 -6 -45 -11 -62 -11 -17 -1
-49 -8 -71 -16 -22 -9 -58 -20 -80 -26 -22 -5 -54 -16 -72 -24 -17 -8 -36 -14
-42 -14 -6 0 -28 -9 -48 -20 -21 -11 -44 -20 -51 -20 -11 0 -37 -12 -112 -51
-8 -5 -46 -24 -85 -44 -38 -20 -88 -47 -110 -60 -22 -13 -46 -27 -52 -30 -7
-3 -19 -7 -25 -10 -7 -3 -31 -17 -53 -30 -22 -14 -51 -29 -65 -35 -14 -6 -32
-17 -40 -24 -8 -7 -40 -26 -70 -42 -30 -16 -59 -32 -65 -37 -34 -25 -87 -57
-94 -57 -4 0 -16 -9 -26 -20 -10 -11 -24 -20 -31 -20 -7 0 -19 -6 -26 -13 -7
-7 -24 -18 -38 -25 -14 -7 -43 -23 -65 -36 -117 -69 -271 -136 -405 -175 -147
-43 -176 -50 -275 -62 -171 -22 -466 -10 -560 22 -16 6 -55 17 -85 24 -59 14
-125 37 -177 60 -17 8 -36 15 -41 15 -13 0 -240 116 -261 133 -9 7 -27 19 -41
25 -14 7 -38 21 -55 32 -37 24 -92 55 -125 71 -14 6 -32 15 -40 20 -8 5 -26
14 -40 20 -44 18 -114 50 -140 64 -14 7 -40 16 -58 20 -18 4 -45 13 -60 21
-15 8 -34 14 -42 14 -8 0 -50 9 -95 19 -44 11 -127 24 -185 30 -58 6 -148 16
-200 21 -99 11 -316 4 -325 -10 -3 -4 -33 -11 -67 -15 -140 -17 -312 -153
-542 -430 -28 -33 -56 -64 -63 -68 -7 -4 -13 -12 -13 -17 0 -5 -14 -24 -30
-42 -17 -18 -43 -51 -58 -73 -15 -22 -52 -72 -82 -112 -30 -39 -68 -90 -84
-112 -17 -23 -33 -41 -38 -41 -4 0 -8 -5 -8 -10 0 -6 -36 -56 -80 -113 -118
-152 -117 -150 -124 -173 -10 -33 24 -57 71 -51 41 6 161 30 233 46 25 6 77
15 115 21 39 7 93 16 120 21 69 13 549 14 610 1 28 -6 82 -15 120 -21 39 -7
90 -16 115 -22 25 -6 70 -17 100 -25 111 -27 175 -47 195 -60 11 -8 29 -14 40
-14 11 0 29 -6 40 -14 11 -7 31 -17 45 -20 14 -4 43 -16 65 -26 22 -10 51 -23
65 -29 24 -10 32 -14 75 -39 11 -7 49 -28 85 -47 36 -19 72 -39 80 -44 8 -5
41 -21 73 -36 31 -15 60 -31 62 -36 3 -4 18 -10 34 -14 16 -3 35 -12 41 -20 6
-7 23 -16 38 -20 15 -4 33 -12 41 -18 7 -6 27 -17 45 -23 17 -7 56 -22 86 -34
30 -12 75 -28 100 -35 25 -7 59 -20 75 -29 17 -9 43 -16 58 -16 15 0 44 -7 63
-15 19 -8 59 -17 87 -21 29 -3 90 -12 136 -20 113 -19 377 -18 478 1 43 8 93
15 111 15 18 0 58 9 89 20 32 11 69 20 83 20 14 1 43 9 65 20 22 11 47 19 55
20 8 0 32 9 53 20 20 11 44 20 52 20 8 0 34 10 57 21 24 12 63 30 88 42 25 11
52 24 60 28 8 4 40 20 70 35 30 15 66 36 79 46 13 10 31 18 40 18 9 0 27 9 41
20 14 11 30 20 36 20 10 0 52 22 114 60 8 5 78 39 155 77 77 37 146 73 153 80
7 7 22 13 31 13 10 0 24 6 30 14 7 8 27 18 44 22 18 3 41 13 52 20 11 8 26 14
35 14 8 0 31 8 50 19 19 10 53 21 74 25 22 4 49 14 60 22 11 8 32 14 46 14 14
0 38 7 55 16 16 8 59 19 95 24 36 4 78 13 94 19 16 6 85 16 155 21 69 6 147
13 174 16 68 9 357 -14 457 -36 47 -11 104 -22 127 -25 24 -4 45 -11 48 -15 3
-5 27 -12 53 -16 26 -3 56 -12 67 -19 11 -7 36 -16 55 -20 19 -4 40 -11 45
-15 6 -4 41 -20 79 -35 81 -32 293 -140 357 -181 49 -32 148 -87 195 -109 17
-7 36 -21 44 -29 7 -9 21 -16 31 -16 10 0 21 -5 25 -11 3 -6 25 -19 48 -30 22
-11 73 -37 111 -59 72 -40 150 -79 220 -110 22 -10 61 -27 86 -39 25 -12 52
-21 60 -21 8 0 27 -7 42 -15 15 -8 45 -17 65 -21 20 -3 55 -12 77 -20 22 -7
72 -18 110 -24 39 -5 90 -14 115 -19 59 -13 374 -13 425 0 22 5 81 16 130 24
103 17 196 40 242 61 17 8 37 14 45 14 7 0 27 9 43 20 17 11 38 20 47 20 16 0
81 28 118 51 8 5 26 14 40 20 55 23 131 62 135 69 3 5 19 11 35 15 17 4 30 10
30 14 0 4 28 22 63 40 34 18 80 44 102 57 22 13 51 29 65 36 14 7 45 26 70 43
25 16 86 50 135 74 50 24 97 47 105 52 24 14 51 26 115 50 33 12 74 28 90 35
44 19 124 44 175 55 25 5 53 14 63 20 10 5 50 14 90 19 40 5 86 14 103 20 74
29 739 29 792 1 10 -5 80 -15 157 -21 76 -6 144 -15 149 -19 6 -5 48 -12 94
-16 95 -8 97 -5 57 66 -13 24 -29 55 -35 69 -14 32 -16 38 -43 81 -12 20 -37
63 -56 95 -19 33 -38 61 -41 64 -4 3 -13 16 -20 29 -23 45 -137 200 -197 270
-12 14 -43 52 -68 84 -47 59 -170 180 -261 258 -90 76 -136 114 -153 123 -9 5
-22 16 -29 23 -7 7 -17 13 -21 13 -4 0 -18 9 -31 20 -13 11 -30 20 -37 20 -8
0 -27 7 -41 15 -15 8 -64 23 -109 35 -101 25 -313 28 -413 6 -36 -8 -94 -19
-130 -25 -140 -22 -235 -43 -254 -57 -11 -8 -32 -14 -46 -14 -14 -1 -43 -9
-65 -20 -22 -11 -49 -20 -60 -20 -11 0 -38 -9 -60 -20 -22 -11 -48 -19 -57
-20 -9 0 -29 -6 -45 -14 -15 -7 -48 -23 -73 -34 -82 -38 -175 -82 -190 -91 -8
-5 -77 -40 -153 -77 -76 -38 -148 -75 -160 -81 -12 -7 -29 -13 -38 -13 -9 0
-22 -7 -29 -15 -7 -8 -20 -15 -29 -15 -9 -1 -34 -9 -56 -20 -22 -11 -49 -20
-60 -20 -11 0 -33 -7 -49 -15 -16 -9 -60 -20 -98 -25 -38 -6 -79 -15 -90 -21
-38 -20 -283 -30 -443 -18 -82 6 -155 15 -161 20 -6 5 -39 13 -75 18 -35 5
-77 16 -94 25 -16 9 -41 16 -55 16 -14 0 -34 6 -45 14 -11 7 -36 17 -55 21
-19 4 -42 13 -50 20 -8 7 -29 16 -47 20 -17 3 -37 12 -43 20 -6 8 -25 17 -41
20 -16 4 -31 10 -34 15 -3 5 -36 23 -73 41 -37 18 -69 36 -72 39 -3 4 -17 13
-32 21 -135 69 -164 86 -171 96 -4 6 -21 14 -37 18 -16 4 -32 11 -36 16 -3 5
-20 16 -37 24 -29 13 -90 47 -212 118 -26 15 -53 27 -60 27 -7 0 -24 9 -38 20
-14 11 -30 20 -37 20 -6 0 -28 8 -48 19 -86 44 -165 75 -237 93 -22 6 -55 17
-74 25 -19 8 -57 17 -85 20 -28 2 -69 12 -91 20 -47 18 -446 27 -558 13z"/>
<path d="M2554 20426 c-19 -14 -19 -38 -19 -1226 0 -1188 0 -1212 19 -1226 17
-12 461 -14 3141 -14 2414 0 3124 3 3133 12 7 7 12 23 12 37 0 15 6 73 15 131
8 58 19 148 24 200 14 139 50 338 88 485 9 33 19 78 24 100 12 60 47 182 57
202 5 10 13 36 16 57 4 21 13 48 21 60 7 12 15 37 19 56 3 19 12 49 20 65 8
17 24 57 36 90 12 33 30 78 41 101 10 23 19 45 19 49 0 15 183 389 225 460 14
22 32 56 41 75 9 19 29 54 45 78 16 24 29 47 29 51 0 4 9 16 20 26 11 10 20
26 20 35 0 9 9 25 20 35 13 12 20 29 18 44 l-3 26 -3531 3 c-3037 2 -3533 0
-3550 -12z"/>
<path d="M22783 20433 c-22 -8 -15 -33 25 -92 44 -67 56 -86 77 -126 9 -16 26
-46 38 -67 61 -102 90 -156 161 -303 43 -88 86 -178 96 -200 27 -58 90 -219
90 -230 0 -6 8 -26 19 -45 10 -19 21 -52 25 -72 4 -20 13 -50 21 -65 8 -15 15
-36 15 -46 0 -10 6 -30 14 -45 8 -15 19 -50 24 -77 6 -28 17 -68 26 -90 8 -22
15 -51 16 -64 0 -13 7 -44 15 -70 18 -55 43 -180 56 -274 5 -37 16 -93 24
-124 8 -32 15 -75 15 -98 0 -35 16 -175 38 -330 l7 -50 3125 -3 c1719 -1 3135
0 3148 3 l22 5 -2 1226 c-3 1076 -5 1226 -18 1234 -15 10 -7053 13 -7077 3z"/>
<path d="M15820 19933 c-19 -2 -44 -8 -55 -13 -11 -4 -55 -11 -97 -15 -43 -3
-92 -12 -110 -19 -18 -8 -58 -17 -88 -21 -30 -4 -64 -14 -75 -21 -11 -8 -31
-14 -45 -14 -14 -1 -43 -9 -65 -20 -22 -11 -47 -19 -55 -20 -8 0 -32 -9 -53
-20 -20 -11 -41 -20 -46 -20 -11 0 -165 -70 -222 -101 -20 -10 -44 -19 -52
-19 -8 0 -17 -4 -19 -8 -1 -4 -86 -49 -188 -100 -102 -51 -192 -97 -200 -102
-8 -4 -58 -28 -110 -53 -52 -25 -129 -61 -171 -81 -42 -20 -82 -36 -88 -36 -6
0 -28 -9 -48 -20 -21 -11 -44 -20 -51 -20 -7 0 -23 -6 -35 -14 -12 -8 -40 -17
-62 -21 -21 -4 -51 -13 -65 -20 -14 -7 -50 -16 -80 -20 -30 -4 -63 -12 -74
-17 -26 -14 -284 -41 -386 -41 -106 0 -300 21 -360 38 -25 7 -71 18 -104 24
-32 6 -64 15 -70 19 -6 5 -29 14 -51 20 -107 29 -283 108 -420 188 -22 13 -53
30 -70 38 -16 9 -37 20 -45 25 -8 6 -41 25 -73 43 -33 18 -75 43 -95 55 -40
23 -121 63 -192 95 -25 11 -58 26 -75 33 -35 16 -80 31 -272 90 -27 8 -68 21
-93 29 -232 77 -516 120 -740 112 -175 -6 -335 -23 -369 -40 -14 -7 -44 -17
-65 -20 -22 -4 -49 -14 -60 -22 -11 -8 -28 -14 -37 -14 -9 0 -26 -9 -39 -20
-13 -11 -28 -20 -33 -20 -11 0 -81 -45 -103 -66 -7 -6 -25 -21 -40 -35 -16
-13 -42 -44 -59 -69 -16 -25 -32 -47 -35 -50 -15 -15 -60 -88 -60 -98 0 -6 -6
-15 -14 -19 -7 -4 -28 -37 -45 -73 -17 -36 -35 -72 -40 -80 -22 -35 -91 -210
-91 -230 -1 -8 -9 -33 -20 -55 -11 -22 -19 -53 -20 -68 0 -15 -7 -44 -15 -64
-8 -19 -20 -74 -25 -122 -6 -47 -14 -104 -20 -126 -26 -113 -20 -642 9 -718
11 -28 33 -35 54 -17 24 20 149 100 156 100 4 0 16 9 26 20 10 11 23 20 29 20
6 0 38 18 71 40 33 22 68 40 77 40 9 0 19 4 22 9 3 4 32 21 63 36 32 15 75 35
95 46 20 10 45 19 55 19 10 0 32 9 48 20 17 11 39 20 50 20 11 0 49 8 85 19
147 44 181 50 318 61 151 13 436 -1 475 -22 11 -5 49 -14 85 -19 36 -5 70 -13
76 -18 6 -5 31 -12 56 -16 25 -4 61 -16 80 -26 19 -11 41 -19 48 -19 8 0 26
-6 40 -14 15 -8 56 -27 92 -42 36 -15 72 -34 81 -41 8 -7 20 -13 26 -13 17 0
141 -59 148 -70 3 -5 14 -10 24 -10 10 0 24 -6 30 -14 7 -8 25 -18 41 -21 16
-3 34 -13 40 -20 7 -8 27 -17 46 -21 18 -3 38 -12 45 -20 6 -8 19 -14 29 -14
9 0 29 -9 43 -20 14 -11 29 -20 34 -20 5 0 63 -27 129 -60 65 -33 126 -60 134
-60 9 0 25 -7 37 -15 11 -8 40 -17 64 -21 24 -4 49 -11 55 -15 17 -14 160 -50
254 -65 47 -7 117 -18 155 -25 94 -15 400 -6 480 15 33 9 79 16 103 16 23 0
58 6 76 14 18 7 53 17 77 21 24 4 55 13 69 20 14 7 43 16 64 19 21 4 48 14 60
21 12 7 38 17 58 20 21 4 42 13 49 21 6 8 19 14 28 14 9 0 33 9 54 20 20 11
43 20 50 20 8 0 24 9 37 20 13 11 32 20 42 20 11 0 31 9 45 20 14 11 32 20 40
20 11 0 117 49 213 99 8 4 29 14 45 22 17 8 48 25 70 36 39 21 104 51 155 72
14 6 32 15 40 21 8 5 26 14 40 20 14 5 32 14 40 18 55 31 101 52 112 52 7 1
31 9 53 20 22 11 47 19 55 20 9 0 25 6 36 14 11 8 38 17 60 21 21 4 49 13 61
21 12 7 41 17 65 20 24 4 51 11 61 16 17 9 80 22 217 47 127 24 256 34 430 34
184 -1 431 -22 466 -41 11 -6 42 -13 69 -17 28 -3 68 -12 90 -20 22 -7 58 -16
79 -20 21 -3 48 -12 60 -20 12 -7 40 -16 63 -20 23 -4 47 -13 54 -21 6 -8 19
-14 28 -14 9 -1 34 -9 56 -20 22 -11 46 -19 53 -20 8 0 25 -9 39 -20 14 -11
36 -20 48 -20 12 0 28 -6 34 -14 7 -8 25 -18 41 -21 16 -3 34 -13 41 -21 6 -8
17 -14 24 -14 7 0 24 -9 38 -20 14 -11 32 -20 40 -20 8 0 25 -8 38 -19 30 -24
122 -76 172 -97 20 -9 37 -20 37 -24 0 -5 13 -11 29 -15 16 -3 35 -13 42 -21
6 -8 17 -14 24 -14 7 0 24 -9 38 -20 14 -11 32 -20 40 -20 8 0 25 -8 38 -19
13 -10 35 -22 49 -26 14 -4 32 -13 40 -20 8 -7 27 -15 43 -19 15 -3 27 -11 27
-16 0 -6 6 -10 14 -10 7 0 34 -11 60 -25 26 -14 53 -25 60 -25 8 0 19 -7 26
-15 7 -8 19 -15 27 -15 8 0 29 -6 46 -14 75 -34 165 -66 188 -66 13 -1 42 -9
64 -20 22 -11 57 -19 77 -20 21 0 59 -7 85 -17 74 -25 453 -25 583 1 224 43
304 66 416 117 23 11 48 19 56 19 9 0 21 7 28 15 7 8 20 15 30 15 9 0 28 8 41
19 13 10 35 22 47 26 13 4 66 31 117 61 52 30 98 54 104 54 5 0 11 4 13 8 2 4
26 21 53 36 28 16 75 45 105 65 67 44 107 66 143 81 15 7 27 16 27 20 0 5 10
12 22 16 12 3 42 21 67 38 25 17 73 44 106 60 33 15 67 32 75 37 8 5 22 12 30
15 8 3 33 14 56 25 23 10 48 19 55 19 8 0 23 6 34 14 11 7 36 17 55 21 19 4
62 15 95 25 179 53 193 55 515 55 252 0 315 -3 365 -16 33 -9 80 -20 105 -24
25 -4 54 -12 65 -18 11 -6 45 -16 75 -23 59 -13 125 -36 177 -59 17 -8 36 -15
43 -15 6 0 28 -8 48 -19 20 -10 57 -28 82 -39 118 -54 160 -76 225 -113 39
-22 84 -47 100 -55 17 -8 48 -26 70 -39 22 -13 54 -31 72 -39 17 -9 34 -20 38
-26 3 -5 13 -10 22 -10 14 0 15 16 9 141 -3 78 -10 149 -15 158 -5 9 -12 62
-16 116 -4 55 -15 137 -26 183 -10 46 -19 95 -19 108 0 25 -28 146 -55 239 -8
28 -17 67 -20 87 -3 20 -12 50 -20 65 -8 15 -15 39 -15 53 0 14 -9 42 -20 63
-11 20 -20 47 -20 59 -1 13 -9 41 -20 63 -11 22 -19 48 -20 57 0 9 -4 19 -9
23 -5 3 -15 22 -21 43 -31 98 -130 293 -165 325 -39 35 -109 77 -129 77 -9 0
-33 9 -53 20 -21 11 -48 20 -60 20 -12 0 -40 7 -60 15 -146 57 -548 102 -758
85 -194 -15 -319 -31 -360 -45 -22 -8 -58 -17 -80 -20 -22 -3 -58 -12 -80 -20
-22 -8 -57 -16 -77 -20 -21 -3 -38 -10 -38 -15 0 -4 -15 -12 -32 -15 -18 -4
-51 -15 -73 -25 -22 -9 -67 -28 -100 -41 -33 -12 -67 -29 -75 -35 -8 -7 -28
-16 -45 -20 -16 -4 -36 -11 -42 -17 -7 -5 -41 -23 -75 -39 -35 -16 -65 -33
-68 -37 -3 -4 -50 -29 -105 -56 -55 -27 -107 -54 -115 -61 -8 -6 -27 -14 -42
-18 -15 -3 -44 -17 -64 -31 -20 -14 -77 -44 -128 -68 -168 -81 -267 -127 -273
-127 -3 0 -24 -8 -47 -19 -83 -38 -273 -101 -304 -101 -13 0 -36 -7 -51 -15
-100 -51 -671 -53 -791 -2 -19 8 -55 20 -80 27 -99 26 -130 36 -142 48 -7 7
-19 12 -27 12 -9 0 -38 11 -66 25 -27 13 -54 25 -59 25 -9 0 -131 57 -186 86
-14 8 -39 20 -57 29 -17 8 -34 19 -38 25 -3 5 -15 10 -25 10 -10 0 -25 6 -32
13 -7 7 -24 18 -38 25 -14 7 -43 24 -65 37 -22 13 -68 38 -103 57 -35 18 -68
39 -74 45 -6 7 -16 13 -24 13 -7 0 -19 6 -26 14 -16 15 -130 80 -168 96 -14 5
-32 14 -40 20 -36 22 -197 99 -222 105 -16 4 -28 11 -28 16 0 4 -17 11 -37 15
-21 4 -49 12 -63 19 -37 20 -117 44 -190 60 -36 7 -76 18 -90 24 -14 6 -61 15
-105 21 -44 5 -107 14 -140 19 -57 9 -391 12 -465 4z"/>
<path d="M15815 18101 c-39 -4 -75 -10 -82 -14 -6 -4 -46 -12 -89 -18 -44 -6
-84 -15 -90 -20 -6 -5 -38 -14 -70 -20 -33 -6 -69 -17 -81 -25 -12 -8 -31 -14
-42 -14 -11 0 -42 -10 -68 -22 -27 -11 -61 -27 -78 -34 -179 -77 -231 -103
-407 -204 -29 -16 -62 -34 -73 -40 -11 -6 -40 -24 -65 -40 -25 -16 -70 -43
-100 -61 -30 -18 -57 -35 -60 -39 -6 -8 -167 -100 -175 -100 -3 0 -14 -9 -25
-20 -11 -11 -28 -20 -39 -20 -10 0 -24 -6 -30 -14 -7 -8 -26 -18 -42 -21 -16
-4 -29 -11 -29 -16 0 -5 -20 -14 -45 -20 -25 -6 -45 -15 -45 -20 0 -4 -17 -11
-37 -15 -21 -4 -45 -12 -53 -20 -8 -7 -33 -17 -55 -23 -22 -5 -62 -17 -90 -26
-110 -35 -142 -44 -189 -49 -26 -3 -69 -13 -95 -23 -39 -14 -90 -16 -351 -16
-222 0 -313 3 -335 13 -16 7 -66 18 -110 25 -44 7 -93 18 -110 24 -54 19 -129
42 -169 52 -21 5 -48 16 -60 24 -11 8 -28 15 -38 15 -10 0 -35 9 -55 20 -21
11 -45 20 -55 20 -9 0 -19 4 -22 9 -3 5 -29 20 -58 33 -88 41 -101 47 -163 81
-33 18 -71 40 -85 50 -13 9 -31 17 -38 17 -8 0 -25 9 -39 20 -14 11 -33 20
-43 20 -9 0 -27 9 -40 20 -13 11 -28 20 -34 20 -6 0 -36 13 -66 30 -69 38 -98
50 -114 50 -8 0 -19 7 -26 15 -7 8 -19 15 -27 15 -7 0 -51 18 -95 40 -45 22
-88 40 -96 40 -8 0 -26 6 -40 14 -37 19 -130 54 -167 62 -16 4 -39 12 -50 18
-11 6 -51 16 -90 22 -38 7 -88 17 -110 23 -52 14 -418 14 -470 0 -22 -6 -71
-17 -110 -24 -73 -14 -138 -34 -217 -66 -26 -10 -53 -19 -61 -19 -8 0 -20 -7
-27 -15 -7 -8 -19 -15 -26 -15 -8 0 -55 -24 -105 -52 -49 -29 -99 -58 -111
-65 -11 -6 -23 -15 -27 -20 -3 -5 -17 -16 -31 -25 -22 -14 -102 -81 -170 -143
-36 -32 -90 -100 -120 -149 l-25 -41 -3 -477 -3 -478 24 0 c12 0 38 11 57 25
19 14 38 25 42 25 5 0 14 5 21 10 25 22 88 60 98 60 5 0 22 8 37 18 60 39 183
102 200 102 5 0 15 6 21 14 7 8 28 17 48 21 20 4 46 13 57 21 11 8 28 14 38
14 10 0 35 9 55 20 21 11 49 20 63 20 14 1 43 9 65 20 22 11 59 19 81 20 23 0
60 7 83 15 104 36 559 36 670 0 25 -8 60 -15 78 -15 18 0 59 -9 90 -20 32 -11
64 -20 73 -20 8 -1 33 -9 55 -20 22 -11 48 -19 58 -20 9 0 34 -9 54 -20 21
-11 43 -20 50 -20 7 0 30 -9 50 -20 21 -11 45 -20 54 -20 9 0 22 -7 29 -15 7
-8 20 -15 29 -15 9 0 32 -8 51 -19 19 -10 49 -21 67 -25 17 -4 37 -14 44 -22
6 -8 22 -14 34 -14 12 0 34 -9 48 -20 14 -11 34 -20 45 -20 11 0 25 -7 32 -15
7 -8 27 -17 46 -21 18 -3 38 -12 45 -20 6 -8 17 -14 23 -14 6 0 34 -11 61 -25
28 -13 57 -25 66 -25 9 0 22 -7 29 -15 7 -8 19 -15 28 -15 14 0 29 -6 143 -59
25 -11 52 -21 59 -21 6 0 26 -6 43 -14 40 -17 160 -53 207 -61 19 -4 56 -13
82 -21 26 -8 89 -19 140 -25 257 -25 317 -28 413 -19 253 23 319 32 345 45 15
8 50 17 79 21 28 4 54 10 56 15 3 4 31 13 63 20 31 6 66 18 77 25 11 8 26 14
35 14 8 0 33 9 55 19 22 11 60 28 85 39 94 41 188 90 265 140 28 17 55 32 61
32 6 0 19 9 29 20 10 11 24 20 31 20 7 0 19 6 26 14 14 14 125 78 165 95 12 6
45 26 72 46 28 19 55 35 60 35 5 0 16 6 23 13 13 14 52 36 98 58 14 6 32 15
40 20 48 27 199 99 220 105 14 3 34 13 45 20 11 8 26 14 35 14 8 0 28 7 44 15
16 9 46 20 65 25 20 5 54 15 76 24 22 8 55 15 73 16 18 0 45 6 60 14 15 7 68
19 117 26 50 6 113 16 140 20 70 12 347 12 425 0 36 -6 101 -15 145 -21 44 -6
88 -16 99 -21 10 -5 47 -14 82 -19 36 -5 75 -15 87 -23 12 -8 39 -17 59 -20
20 -4 50 -13 65 -21 15 -8 35 -15 43 -15 9 0 24 -6 35 -14 11 -7 31 -17 45
-21 40 -11 208 -94 215 -105 3 -6 13 -10 21 -10 13 0 153 -77 222 -123 15 -9
42 -24 60 -32 17 -8 32 -19 32 -23 0 -4 22 -18 49 -31 28 -13 58 -32 67 -42 9
-11 24 -19 32 -19 9 0 25 -9 36 -19 12 -11 44 -31 71 -46 28 -14 82 -46 120
-70 39 -24 80 -49 93 -55 13 -5 30 -17 38 -25 9 -8 22 -15 29 -15 7 0 20 -6
27 -13 7 -7 40 -26 73 -42 33 -16 67 -34 75 -41 8 -6 29 -15 45 -18 17 -4 37
-13 45 -20 8 -8 29 -16 45 -20 17 -4 44 -13 60 -20 36 -16 151 -51 220 -66 28
-6 66 -15 85 -20 99 -28 619 -20 655 10 6 5 38 13 70 19 33 5 74 16 90 25 17
9 39 16 50 16 11 0 29 6 40 14 11 7 36 16 56 20 21 4 42 13 49 21 7 8 27 17
46 21 18 3 38 12 45 20 6 8 18 14 27 14 8 0 23 6 31 14 9 7 43 28 76 45 32 18
66 37 75 44 8 7 34 23 57 35 22 12 77 46 122 75 44 28 102 65 128 81 27 16 80
50 118 75 70 46 109 69 155 93 14 7 27 16 30 19 9 12 184 99 199 99 8 0 22 6
30 13 16 14 82 39 156 59 22 6 49 17 60 25 11 7 33 13 50 13 17 0 65 9 106 20
63 17 107 20 289 20 121 0 233 -5 255 -11 22 -6 70 -17 107 -24 38 -7 74 -17
80 -23 7 -5 29 -13 48 -17 42 -8 161 -53 175 -66 5 -5 15 -9 23 -9 15 0 94
-38 157 -76 22 -13 47 -27 55 -30 19 -8 213 -136 220 -145 3 -3 16 -12 30 -19
14 -7 52 -35 85 -62 33 -27 101 -80 150 -118 113 -87 112 -88 96 127 -19 252
-24 444 -11 469 24 43 -8 251 -51 339 -39 78 -50 94 -106 153 -29 30 -53 59
-53 63 0 4 -4 9 -9 11 -5 2 -26 18 -47 35 -22 18 -77 62 -124 98 -47 35 -97
73 -112 85 -14 11 -31 20 -37 20 -6 0 -11 4 -11 9 0 5 -10 13 -21 16 -12 4
-47 24 -78 44 -31 20 -65 42 -76 49 -34 20 -144 72 -153 72 -5 0 -15 7 -22 15
-7 8 -20 15 -29 15 -9 0 -32 8 -51 19 -19 10 -51 22 -70 26 -19 4 -40 12 -47
17 -7 5 -41 14 -75 19 -35 5 -88 15 -118 24 -61 17 -270 20 -355 5 -84 -15
-174 -38 -216 -54 -22 -9 -50 -16 -63 -16 -13 0 -29 -6 -35 -14 -7 -8 -27 -18
-44 -21 -18 -4 -51 -15 -74 -26 -24 -10 -64 -28 -90 -40 -27 -11 -55 -25 -63
-30 -8 -5 -22 -12 -30 -15 -32 -12 -184 -90 -194 -99 -7 -5 -24 -17 -39 -25
-104 -58 -254 -151 -398 -246 -19 -13 -40 -24 -46 -24 -6 0 -13 -6 -16 -13 -2
-7 -30 -25 -60 -41 -31 -15 -61 -34 -68 -42 -6 -8 -19 -14 -29 -14 -10 0 -23
-7 -30 -15 -7 -8 -18 -15 -24 -15 -6 0 -33 -12 -61 -25 -27 -14 -55 -25 -61
-25 -6 0 -17 -7 -24 -15 -7 -8 -19 -15 -28 -15 -9 0 -34 -8 -56 -18 -38 -17
-90 -34 -235 -77 -29 -9 -88 -20 -130 -25 -42 -5 -92 -14 -111 -20 -45 -13
-324 -13 -370 0 -19 6 -73 15 -120 21 -77 9 -124 20 -215 51 -16 6 -50 16 -75
23 -25 7 -58 20 -75 29 -16 9 -35 16 -42 16 -7 0 -29 8 -50 19 -21 10 -63 31
-93 46 -30 15 -73 37 -95 50 -22 13 -53 31 -70 40 -73 39 -85 47 -85 56 0 5
-5 9 -12 9 -7 0 -28 11 -47 24 -20 13 -56 37 -80 52 -24 16 -54 36 -67 44 -13
8 -62 39 -111 68 -48 29 -108 66 -133 82 -25 16 -54 34 -65 40 -11 5 -38 21
-60 35 -22 14 -53 32 -70 40 -16 9 -37 20 -45 25 -8 5 -44 23 -80 40 -36 17
-72 35 -80 39 -8 4 -34 17 -57 29 -23 12 -48 22 -55 22 -7 0 -30 9 -51 20 -20
11 -42 20 -48 20 -6 0 -25 6 -42 14 -30 13 -106 34 -207 57 -25 6 -74 17 -110
26 -73 17 -504 27 -625 14z"/>
<path d="M2547 17142 c-16 -17 -17 -116 -17 -1219 l0 -1200 23 -21 23 -22
3118 2 c2758 3 3118 5 3126 18 6 9 10 481 10 1227 0 1188 0 1213 -19 1223 -14
7 -1006 10 -3134 10 -3004 0 -3114 -1 -3130 -18z"/>
<path d="M23595 17138 c-3 -7 -4 -560 -3 -1228 l3 -1215 3145 0 3145 0 0 1225
0 1225 -3143 3 c-2509 2 -3144 0 -3147 -10z"/>
<path d="M15990 16681 c-20 -4 -40 -10 -46 -14 -6 -3 -42 -11 -79 -17 -38 -6
-74 -15 -80 -19 -5 -5 -26 -12 -45 -16 -19 -4 -54 -16 -77 -26 -23 -11 -45
-19 -49 -19 -10 0 -257 -117 -294 -139 -8 -5 -22 -12 -30 -16 -8 -3 -51 -26
-95 -50 -44 -24 -111 -60 -150 -80 -38 -19 -106 -55 -150 -80 -44 -24 -107
-58 -140 -76 -33 -17 -78 -42 -100 -55 -22 -13 -51 -29 -65 -36 -14 -7 -46
-27 -72 -45 -26 -18 -53 -33 -60 -33 -6 0 -19 -6 -27 -14 -21 -18 -113 -66
-127 -66 -6 0 -17 -6 -23 -14 -7 -8 -26 -18 -42 -21 -16 -4 -29 -10 -29 -15 0
-4 -15 -13 -32 -20 -40 -15 -78 -31 -139 -59 -25 -12 -51 -21 -58 -21 -6 0
-37 -9 -68 -20 -32 -11 -68 -20 -81 -20 -12 0 -35 -6 -50 -14 -17 -9 -92 -19
-189 -27 -178 -13 -428 -1 -518 27 -27 8 -63 14 -82 14 -18 0 -59 9 -90 19
-32 11 -75 22 -95 26 -20 3 -50 12 -65 20 -15 8 -37 15 -48 15 -11 0 -32 6
-47 14 -15 8 -42 17 -60 21 -18 4 -49 16 -68 26 -19 11 -41 19 -48 19 -8 0
-26 6 -40 14 -15 7 -43 19 -62 26 -94 33 -116 43 -131 56 -8 8 -24 14 -34 14
-10 0 -37 9 -61 20 -24 11 -64 29 -88 40 -24 11 -50 20 -58 20 -9 0 -21 7 -28
15 -7 8 -28 17 -49 21 -20 4 -43 12 -51 19 -8 7 -26 16 -40 20 -25 6 -37 11
-133 54 -26 11 -54 21 -62 21 -8 0 -32 9 -52 20 -21 11 -46 20 -56 20 -11 0
-31 7 -45 15 -32 17 -101 42 -156 56 -21 5 -50 16 -65 23 -14 8 -48 17 -75 21
-27 4 -61 14 -75 21 -14 8 -35 14 -46 14 -11 0 -56 9 -100 20 -68 17 -114 20
-315 19 -180 0 -244 -3 -275 -14 -22 -8 -65 -18 -95 -21 -30 -4 -64 -12 -75
-19 -11 -7 -36 -16 -55 -20 -19 -4 -44 -13 -55 -19 -11 -7 -33 -16 -50 -20
-16 -4 -35 -12 -42 -18 -6 -5 -40 -24 -75 -42 -86 -44 -104 -55 -165 -98 -29
-21 -55 -38 -59 -38 -4 0 -12 -6 -18 -13 -6 -8 -46 -42 -88 -76 -42 -34 -108
-93 -147 -132 l-70 -72 -6 -71 c-3 -39 -5 -228 -3 -421 l3 -350 6810 0 6810 0
3 394 2 395 -26 49 c-14 28 -31 56 -37 63 -7 8 -21 25 -32 39 -46 60 -122 130
-195 180 -25 17 -52 37 -61 45 -33 30 -63 50 -75 50 -7 0 -19 7 -28 15 -18 19
-264 145 -281 145 -7 0 -18 7 -25 15 -7 8 -22 15 -34 15 -12 0 -38 9 -59 20
-20 11 -45 20 -54 20 -10 1 -36 9 -58 20 -22 11 -49 19 -59 20 -11 0 -47 9
-80 19 -148 46 -310 65 -496 58 -80 -3 -158 -11 -175 -17 -16 -6 -54 -16 -82
-21 -29 -6 -65 -16 -80 -24 -16 -8 -36 -15 -46 -15 -10 0 -44 -12 -75 -26 -31
-14 -70 -32 -87 -39 -75 -33 -162 -78 -245 -129 -14 -8 -39 -22 -56 -30 -17
-8 -36 -22 -44 -30 -7 -9 -18 -16 -24 -16 -11 0 -22 -7 -84 -56 -15 -11 -34
-24 -42 -27 -32 -15 -175 -114 -190 -132 -7 -8 -18 -15 -25 -15 -6 0 -20 -9
-30 -20 -10 -11 -22 -20 -27 -20 -4 0 -30 -15 -56 -34 -27 -18 -58 -37 -70
-40 -12 -4 -22 -11 -22 -15 0 -10 -176 -101 -194 -101 -8 0 -19 -6 -25 -14 -7
-8 -27 -18 -44 -22 -18 -3 -43 -12 -57 -19 -44 -24 -155 -57 -280 -84 -132
-29 -412 -50 -433 -33 -7 6 -57 13 -112 17 -55 3 -125 15 -155 25 -30 10 -74
21 -97 25 -24 4 -45 11 -49 16 -3 5 -15 9 -27 9 -12 0 -38 8 -57 18 -19 11
-48 22 -65 26 -16 4 -37 13 -45 20 -8 8 -28 16 -45 20 -16 4 -48 20 -71 36
-23 15 -52 31 -65 35 -13 4 -43 22 -68 39 -25 17 -57 37 -71 44 -61 31 -80 44
-80 52 0 5 -10 12 -22 16 -13 4 -41 22 -64 40 -23 19 -46 34 -51 34 -6 0 -28
14 -49 31 -22 17 -55 40 -74 50 -19 10 -62 39 -95 64 -33 25 -70 49 -83 55
-13 6 -67 39 -120 74 -200 131 -556 305 -627 306 -11 1 -38 9 -60 20 -22 11
-57 19 -78 20 -21 0 -54 7 -75 17 -30 13 -78 17 -257 19 -121 2 -236 -1 -255
-5z"/>
<path d="M2645 14385 c-5 -2 -35 -11 -65 -19 -44 -12 -60 -23 -80 -53 l-25
-37 0 -316 0 -317 28 -36 c18 -24 41 -40 66 -47 27 -7 1244 -9 3872 -8 l3834
3 41 22 c32 17 47 34 65 75 23 52 24 59 24 343 l0 290 -27 35 c-55 71 299 65
-3918 67 -2093 1 -3809 0 -3815 -2z"/>
<path d="M22160 14373 c-96 -16 -117 -27 -156 -79 -24 -31 -29 -50 -38 -142
-12 -129 -12 -365 0 -482 12 -116 33 -144 124 -160 99 -17 7701 -10 7751 8 24
8 47 27 65 55 l29 42 3 318 c2 272 1 322 -13 350 -29 60 -42 69 -122 88 -75
18 -212 18 -3818 18 -3263 -1 -3751 -3 -3825 -16z"/>
<path d="M2486 10228 c-8 -30 -8 -5842 0 -5862 6 -15 1224 -16 13725 -16
l13719 0 -2 2948 -3 2947 -13716 3 -13717 2 -6 -22z m3456 -1425 c9 -10 8 -13
-8 -15 -10 -1 19 -5 66 -9 107 -9 151 -18 168 -35 7 -8 33 -14 58 -14 32 0 44
-4 44 -15 0 -10 10 -15 26 -15 40 0 157 -66 210 -117 13 -13 30 -23 39 -23 18
0 205 -177 205 -195 0 -6 12 -22 26 -36 29 -27 88 -137 111 -208 38 -117 56
-237 60 -410 3 -136 1 -178 -10 -195 -12 -18 -26 -67 -32 -116 -1 -8 -9 -37
-18 -63 -10 -26 -17 -53 -17 -60 0 -7 -9 -20 -20 -30 -11 -9 -20 -28 -20 -41
0 -14 -5 -28 -10 -31 -6 -4 -22 -23 -35 -43 -48 -75 -254 -272 -284 -272 -10
0 -35 -18 -55 -40 -31 -35 -42 -40 -79 -40 -31 0 -45 -5 -55 -20 -8 -13 -23
-20 -42 -20 -16 0 -44 -9 -62 -19 -52 -31 -228 -69 -320 -70 -26 -1 -49 -5
-52 -9 -3 -5 -133 -12 -290 -15 -176 -4 -293 -11 -309 -18 l-25 -11 2 -332 1
-331 -480 -2 c-326 -1 -484 2 -492 9 -10 8 -13 278 -13 1372 0 748 3 1391 6
1428 l7 67 36 4 c20 2 399 3 843 3 632 -1 810 -4 820 -13z m3011 3 c21 -6 25
-11 15 -17 -8 -5 10 -9 46 -9 33 0 73 -4 90 -9 17 -5 51 -15 76 -21 25 -7 64
-20 88 -31 23 -10 51 -19 61 -19 10 0 29 -8 42 -19 13 -10 62 -37 109 -61 68
-34 104 -62 193 -149 59 -58 122 -126 138 -150 43 -63 109 -197 109 -221 0
-12 5 -31 12 -43 22 -41 62 -377 52 -437 -4 -19 -13 -60 -21 -90 -8 -30 -19
-73 -24 -95 -5 -22 -13 -56 -17 -75 -11 -44 -96 -204 -128 -243 -13 -16 -24
-32 -24 -36 0 -18 -168 -182 -197 -192 -18 -6 -33 -15 -33 -20 0 -5 -6 -9 -14
-9 -8 0 -23 -11 -34 -25 -11 -14 -29 -25 -40 -25 -11 0 -22 -7 -26 -15 -3 -9
-19 -15 -41 -15 -24 0 -39 -6 -47 -20 -8 -12 -24 -20 -40 -20 -30 0 -78 -19
-78 -31 0 -4 -17 -9 -37 -12 -21 -2 -63 -12 -93 -21 -76 -22 -321 -44 -590
-51 -124 -3 -233 -8 -242 -11 -17 -5 -18 -30 -18 -339 l0 -333 -22 -6 c-30 -8
-922 -8 -942 0 -15 6 -16 141 -16 1429 0 783 2 1430 5 1438 5 12 127 14 833
12 455 0 840 -5 855 -9z m2252 8 l25 -6 0 -1429 c0 -1402 0 -1428 -19 -1439
-30 -15 -943 -14 -959 2 -9 9 -12 339 -12 1425 0 1392 0 1413 20 1433 19 19
35 19 470 20 248 0 462 -3 475 -6z m2310 -4 c55 -4 129 -15 165 -24 81 -21
125 -32 170 -41 29 -7 173 -76 280 -135 36 -20 150 -124 150 -137 0 -5 9 -18
20 -28 11 -10 20 -28 20 -40 0 -12 9 -30 20 -40 11 -10 20 -23 20 -30 0 -7 9
-22 20 -35 15 -17 20 -37 20 -80 0 -39 5 -62 15 -70 29 -24 4 -253 -36 -332
-11 -21 -19 -46 -19 -56 0 -10 -11 -29 -25 -42 -14 -13 -25 -33 -25 -45 0 -11
-16 -36 -35 -55 -19 -19 -35 -43 -35 -54 0 -10 -3 -16 -6 -13 -4 4 -24 -7 -44
-23 -21 -17 -41 -30 -45 -30 -4 0 -19 -12 -32 -26 -32 -34 -27 -66 12 -79 17
-5 46 -22 66 -37 20 -16 42 -28 49 -28 7 0 54 -41 105 -90 82 -81 95 -99 132
-183 59 -136 62 -147 67 -339 5 -164 4 -178 -14 -201 -11 -14 -20 -33 -20 -44
0 -10 -9 -31 -20 -48 -11 -16 -20 -42 -20 -56 0 -19 -18 -45 -63 -90 -81 -83
-171 -159 -187 -159 -7 0 -21 -11 -32 -25 -11 -14 -25 -24 -31 -23 -7 1 -26
-6 -44 -15 -18 -9 -41 -17 -53 -17 -11 0 -20 -4 -20 -10 0 -5 -15 -10 -34 -10
-18 0 -45 -9 -59 -20 -18 -14 -47 -22 -94 -26 -40 -3 -78 -12 -93 -22 -23 -16
-98 -17 -1040 -17 l-1015 0 -3 1420 c-1 781 0 1430 3 1443 l5 22 853 -1 c468
-1 897 -5 952 -9z m3262 4 c16 -5 36 -33 68 -95 25 -49 45 -97 45 -108 0 -11
34 -88 75 -170 41 -82 75 -155 75 -163 0 -7 11 -35 25 -62 14 -27 25 -56 25
-63 0 -8 13 -37 29 -66 15 -29 32 -63 36 -77 4 -13 41 -96 81 -183 41 -87 77
-171 80 -185 4 -15 22 -55 40 -89 19 -34 34 -68 34 -77 0 -9 18 -52 40 -96 22
-44 40 -86 40 -94 0 -13 16 -49 42 -96 47 -85 68 -133 68 -152 0 -13 23 -65
50 -117 28 -51 50 -101 50 -110 -1 -9 19 -56 44 -106 72 -147 116 -244 116
-259 0 -7 36 -89 80 -182 44 -93 80 -175 80 -182 0 -7 16 -44 35 -83 l36 -70
-511 1 c-281 1 -518 4 -526 7 -8 3 -14 15 -14 28 0 12 -8 30 -19 39 -10 9 -21
35 -25 56 -3 22 -10 40 -15 40 -5 0 -7 9 -4 20 4 13 -2 29 -15 43 -12 12 -24
42 -28 67 -4 25 -13 57 -20 72 -8 15 -14 37 -14 49 0 12 -3 19 -7 16 -10 -11
-33 13 -33 34 0 11 -7 19 -17 19 -74 1 -906 1 -974 1 -81 -1 -87 -2 -92 -23
-8 -36 -28 -90 -48 -129 -11 -20 -19 -43 -19 -52 0 -8 -6 -19 -13 -25 -7 -6
-14 -28 -15 -49 -2 -21 -14 -55 -27 -75 -14 -21 -25 -49 -25 -64 0 -14 -10
-37 -22 -50 l-23 -24 -493 0 c-542 0 -522 -3 -483 61 12 19 21 43 21 55 0 11
9 29 20 39 11 10 20 30 20 44 0 14 16 52 35 84 19 32 35 64 35 71 0 8 26 70
59 137 32 68 64 141 70 162 7 20 17 37 22 37 5 0 9 11 9 24 0 13 9 35 20 49
11 14 20 32 20 41 0 16 22 68 66 161 13 28 24 58 24 66 0 9 7 22 15 29 8 7 15
18 15 24 0 6 18 47 40 91 22 44 40 88 40 98 0 9 32 80 70 157 39 77 70 149 70
160 0 11 18 56 40 100 22 44 40 84 40 90 0 6 10 24 21 40 12 15 23 39 24 52 2
13 24 68 49 122 25 55 46 107 46 116 0 9 9 25 20 35 11 10 20 28 20 41 0 12
20 61 45 108 25 48 45 95 45 105 0 10 9 26 20 36 11 10 20 31 20 47 0 16 6 31
15 34 8 4 15 16 15 28 0 11 11 42 25 68 14 26 25 54 25 63 0 9 9 28 20 42 11
14 20 36 20 48 0 12 7 28 15 35 8 7 15 23 15 35 0 29 17 42 60 48 56 6 893 7
917 1z m2978 -4 c147 -11 191 -17 214 -30 11 -5 43 -10 71 -10 36 0 52 -4 56
-15 4 -8 16 -15 29 -15 12 0 61 -18 108 -40 47 -22 92 -40 100 -40 9 0 28 -11
44 -24 15 -13 44 -31 63 -41 19 -10 50 -31 68 -46 18 -16 37 -29 42 -29 5 0
17 -14 25 -30 9 -17 27 -35 40 -40 13 -5 36 -26 50 -47 14 -21 36 -52 48 -69
19 -28 29 -43 65 -104 36 -59 66 -148 82 -245 27 -153 31 -198 27 -318 -4
-135 -16 -210 -36 -230 -6 -6 -11 -22 -11 -36 0 -44 -74 -231 -92 -231 -4 0
-15 -14 -23 -31 -9 -16 -24 -38 -33 -47 -9 -10 -30 -33 -45 -51 -44 -53 -190
-172 -217 -177 -15 -3 -33 -19 -43 -36 l-17 -30 38 -46 c21 -26 50 -68 65 -93
14 -25 33 -52 42 -59 9 -8 27 -35 40 -60 13 -25 31 -52 40 -60 9 -8 27 -35 40
-60 13 -25 31 -52 40 -60 9 -8 27 -35 40 -60 13 -25 31 -52 40 -60 9 -8 27
-34 40 -59 12 -25 33 -55 45 -66 12 -11 29 -37 37 -58 9 -21 24 -44 35 -51 10
-7 23 -28 28 -45 l9 -31 -518 0 -518 1 -60 62 c-33 34 -69 82 -80 107 -12 25
-30 54 -42 64 -12 11 -21 29 -21 41 0 12 -16 37 -35 56 -19 19 -50 58 -68 88
-17 29 -48 73 -69 97 -20 23 -41 59 -48 78 -6 19 -17 37 -25 40 -8 3 -15 12
-15 20 0 8 -16 28 -35 45 -35 30 -38 31 -135 31 -77 0 -102 -3 -115 -16 -14
-14 -16 -56 -15 -356 2 -275 -1 -342 -12 -349 -15 -10 -928 -12 -952 -3 -15 6
-16 141 -16 1435 0 1349 1 1429 18 1438 21 13 1405 14 1567 1z m3897 -7 c17
-15 18 -40 18 -378 0 -267 -3 -364 -12 -373 -9 -9 -117 -12 -425 -12 l-413 0
-2 -1052 -3 -1053 -485 0 -485 0 -3 1053 -2 1052 -400 0 c-281 0 -407 3 -425
12 l-25 11 0 257 c0 141 3 312 7 378 l6 122 1315 0 c1210 0 1317 -1 1334 -17z
m1205 4 c4 -5 8 -648 8 -1429 0 -1408 0 -1420 -20 -1434 -17 -13 -91 -15 -479
-13 -253 0 -465 3 -473 6 -11 4 -13 247 -13 1426 0 1251 2 1422 15 1437 14 15
59 17 484 16 258 -1 473 -5 478 -9z m1266 6 c20 -3 37 -9 37 -13 0 -9 23 -36
144 -165 47 -50 89 -101 93 -113 5 -13 36 -53 68 -89 129 -142 152 -169 161
-185 5 -9 37 -46 72 -83 35 -36 68 -77 74 -90 6 -14 15 -25 19 -25 5 0 20 -17
33 -37 13 -21 48 -63 77 -94 30 -30 72 -79 94 -108 22 -28 78 -98 125 -154
l85 -101 3 608 c2 565 3 610 20 622 9 7 13 14 7 15 -45 8 187 16 516 17 305 1
400 -2 413 -11 17 -12 18 -100 16 -1437 -1 -1101 -4 -1426 -13 -1432 -7 -5
-177 -8 -379 -7 -202 0 -372 -2 -377 -5 -15 -10 -63 18 -87 51 -12 15 -50 60
-85 100 -35 39 -80 93 -99 119 -19 26 -60 75 -90 108 -30 34 -58 66 -62 71 -4
6 -22 28 -41 50 -18 22 -42 54 -52 72 -10 17 -27 34 -37 36 -10 3 -27 24 -37
47 -10 23 -32 50 -50 61 -17 10 -35 27 -38 37 -3 9 -24 37 -45 62 -22 25 -57
65 -79 90 -21 25 -54 65 -73 90 -105 137 -218 262 -228 252 -4 -4 -9 -284 -10
-622 l-3 -615 -469 -3 c-338 -1 -473 1 -482 9 -12 10 -14 244 -14 1430 l0
1418 22 15 c19 13 73 15 377 15 196 -1 373 -3 394 -6z"/>
<path d="M5226 8005 c-17 -31 -18 -54 -11 -308 4 -151 10 -280 14 -286 10 -15
359 -9 441 7 30 7 73 14 94 18 30 5 54 21 98 63 49 49 58 62 58 93 0 19 6 51
14 69 19 47 28 159 13 156 -7 -1 -13 10 -15 24 -2 15 -12 35 -23 45 -10 9 -19
22 -19 29 0 20 -64 73 -120 99 -54 26 -58 26 -291 25 l-235 0 -18 -34z"/>
<path d="M8270 8025 c-7 -13 -17 -22 -22 -19 -4 3 -8 -125 -8 -283 0 -218 3
-293 13 -307 11 -15 31 -16 207 -13 208 5 281 13 345 41 51 22 125 94 125 122
0 11 9 29 21 40 18 17 20 27 16 109 -7 119 -15 160 -38 181 -10 9 -19 23 -19
30 0 18 -38 56 -83 82 -44 25 -209 42 -417 42 -124 0 -127 0 -140 -25z"/>
<path d="M12676 8105 c-3 -9 -6 -104 -6 -211 l0 -194 265 0 c253 0 266 1 282
20 13 15 30 20 65 20 27 0 48 5 48 10 0 6 11 15 25 20 37 14 55 66 55 154 0
65 -3 78 -25 105 -14 16 -47 42 -73 57 l-47 27 -291 4 c-262 3 -292 2 -298
-12z"/>
<path d="M12674 7015 c-8 -31 -1 -371 8 -380 10 -10 604 -5 681 5 81 12 90 16
141 68 l38 40 -4 84 c-5 107 -28 145 -109 182 l-57 26 -346 0 -346 0 -6 -25z"/>
<path d="M16298 7763 c-10 -2 -18 -10 -18 -17 0 -6 -9 -29 -20 -51 -11 -22
-20 -46 -20 -54 0 -25 -21 -84 -51 -142 -16 -31 -29 -63 -29 -70 0 -8 -13 -39
-30 -69 -16 -30 -29 -62 -30 -71 0 -9 -7 -30 -16 -47 -8 -18 -14 -46 -12 -64
l3 -33 243 -3 c262 -3 262 -3 228 51 -8 12 -17 38 -20 59 -4 20 -13 39 -21 42
-8 3 -15 17 -15 31 0 14 -9 43 -20 63 -10 20 -22 54 -25 75 -3 21 -10 35 -15
32 -5 -3 -12 7 -15 22 -3 15 -12 42 -20 58 -36 79 -53 123 -59 158 -4 20 -10
36 -14 36 -4 -1 -15 -3 -24 -6z"/>
<path d="M19156 8019 c-11 -54 -7 -579 4 -600 10 -18 23 -19 214 -19 171 0
208 3 237 17 19 9 58 20 87 24 46 6 60 14 100 56 72 74 92 118 92 207 0 41 -4
78 -10 81 -5 3 -10 24 -10 45 0 21 -5 42 -11 46 -6 3 -16 19 -22 33 -15 34
-79 91 -101 91 -9 0 -29 6 -44 13 -15 8 -52 15 -82 16 -30 2 -62 7 -72 12 -9
5 -97 9 -196 9 l-179 0 -7 -31z"/>
</g>
</svg>
